<?xml version="1.0" encoding="UTF-8"?>
<svg width="444px" height="512px" viewBox="0 0 444 512" version="1.1" xmlns="http://www.w3.org/2000/svg" xmlns:xlink="http://www.w3.org/1999/xlink">
    <!-- Generator: Sketch 57.1 (83088) - https://sketch.com -->
    <title>Group 2</title>
    <desc>Created with Sketch.</desc>
    <g id="Page-1" stroke="none" stroke-width="1" fill="none" fill-rule="evenodd">
        <g id="Group-2" transform="translate(-1.000000, -1.000000)" fill-rule="nonzero">
            <g id="ipfs-logo-vector-ice-text">
                <g id="Group">
                    <g transform="translate(0.983000, 0.490000)">
                        <polygon id="Path" fill="#4A9EA1" points="0.315 384.51 222.015 512.51 443.715 384.51 443.715 128.51 222.015 0.52 0.315 128.52"></polygon>
                        <path d="M199.13,31.35 L38.39,124.156 C38.71126,127.0103 38.71125,129.8912 38.39,132.7454 L199.14,225.5514 C212.694,215.5504 231.183,215.5504 244.737,225.5514 L405.487,132.7444 C405.16574,129.8901 405.16407,127.0106 405.487,124.1564 L244.746,31.35 C231.192,41.3514 212.702,41.3514 199.147,31.35 L199.13,31.35 Z M420.92,158.38 L260,252.22 C261.884,268.959 252.6389,284.971 237.201,291.709 L237.38162,476.289 C240.01412,477.4379 242.50832,478.8776 244.81962,480.583 L405.56962,387.778 C403.68562,371.039 412.93072,355.026 428.36862,348.288 L428.36862,162.678 C425.73612,161.5291 423.24052,160.0894 420.92922,158.384 L420.92,158.38 Z M23.11,159.4115 C20.7988,161.1169 18.3046,162.558 15.672,163.7069 L15.672,349.3169 C31.11,356.0547 40.355,372.0669 38.471,388.8059 L199.211,481.6119 C201.5222,479.9065 204.0179,478.4654 206.6504,477.3165 L206.6504,291.7065 C191.2124,284.9687 181.9674,268.9565 183.8514,252.2175 L23.1114,159.4075 L23.11,159.4115 Z" id="Shape" fill="#63D3D7"></path>
                    </g>
                    <g transform="translate(1.000000, 0.340000)" fill="#000000" id="Path">
                        <polygon fill-opacity="0.25098" points="222 512.66 443.7 384.66 443.7 128.66 222 256.66"></polygon>
                        <polygon fill-opacity="0.039216" points="222 512.66 222 256.66 0.3 128.66 0.3 384.66"></polygon>
                        <polygon fill-opacity="0.13018" points="0.298 128.66 221.998 256.66 443.698 128.66 221.998 0.66"></polygon>
                    </g>
                </g>
                <g id="Group" transform="translate(40.000000, 183.000000)" fill="#FFFFFF">
                    <polygon id="Path" points="30.09 4 0.89 4 0.89 145.2 30.09 145.2"></polygon>
                    <path d="M80.97,145.2 L80.97,93.4 C88.17,94 95.37,94 101.37,94 C142.97,94 154.97,73.4 154.97,48 C154.97,17.2 132.97,4 98.97,4 L51.77,4 L51.77,145.2 L80.97,145.2 Z M96.77,73.4 C91.37,73.4 83.37,73.4 80.97,73.2 L80.97,25.2 L99.17,25.2 C116.77,25.2 126.77,33.6 126.77,49 L126.77,49.4 C126.77,61.4 122.37,73.4 96.77,73.4 L96.77,73.4 Z" id="Shape"></path>
                    <polygon id="Path" points="254.95 4 166.35 4 166.35 145.2 195.55 145.2 195.55 83 250.95 83 250.95 61.8 195.35 61.8 195.35 25.4 252.95 25.4"></polygon>
                    <path d="M350.51,31.6 L358.11,12 C346.71,3.8 331.31,0.8 311.91,0.8 C283.71,0.8 260.51,14 260.51,41 C260.51,65.2 278.31,74.8 296.11,80.6 L313.91,86.6 C326.11,90.8 336.11,94.8 336.11,108 C336.11,120 325.71,124.8 309.91,124.8 C293.91,124.8 276.71,120 266.91,113.8 L259.31,135 C272.11,143.2 288.31,147.2 310.11,147.2 C341.11,147.2 365.11,133.6 365.11,104.6 C365.11,77.6 344.51,69 323.71,62 L304.31,55.6 C295.91,52.8 289.51,49 289.51,38.2 C289.51,27.2 298.51,22.8 311.91,22.8 C328.31,22.8 341.11,25.8 350.51,31.6 L350.51,31.6 Z" id="Path"></path>
                </g>
            </g>
            <g id="japan-flag" opacity="0.95" transform="translate(249.000000, 350.000000)">
                <rect id="_x32_" fill="#FFFFFF" x="0" y="0" width="111" height="74"></rect>
                <ellipse id="_x31_" fill="#BC002D" cx="55.5" cy="37" rx="22.5" ry="22"></ellipse>
            </g>
        </g>
    </g>
</svg>